<svg width="16" height="16" viewBox="0 0 16 16" fill="none" xmlns="http://www.w3.org/2000/svg">
<path fill-rule="evenodd" clip-rule="evenodd" d="M8.00349 3.89219C7.19036 3.89213 6.39547 4.13314 5.71935 4.58476C5.04323 5.03638 4.51624 5.67831 4.20503 6.42937C3.89382 7.18044 3.81236 8.00691 3.97095 8.80427C4.12955 9.60162 4.52107 10.3341 5.09602 10.9089C5.67097 11.4838 6.40351 11.8753 7.20101 12.0339C7.99851 12.1926 8.82515 12.1112 9.57638 11.8001C10.3276 11.489 10.9697 10.9622 11.4215 10.2862C11.8732 9.61024 12.1144 8.81553 12.1144 8.00256C12.1141 6.91255 11.6809 5.86726 10.9101 5.09647C10.1392 4.32569 9.09371 3.89252 8.00349 3.89219ZM8.00349 10.6688C7.47605 10.6688 6.96046 10.5124 6.52191 10.2195C6.08336 9.9265 5.74155 9.51009 5.53971 9.02289C5.33787 8.5357 5.28506 7.99961 5.38796 7.4824C5.49086 6.9652 5.74484 6.49012 6.1178 6.11724C6.49075 5.74436 6.96592 5.49042 7.48323 5.38755C8.00053 5.28467 8.53673 5.33747 9.02402 5.53927C9.51131 5.74107 9.9278 6.08281 10.2208 6.52128C10.5139 6.95974 10.6703 7.47523 10.6703 8.00256C10.6702 8.70967 10.3892 9.38779 9.88909 9.8878C9.38899 10.3878 8.71074 10.6687 8.00349 10.6688Z" fill="#414141"/>
<path d="M13.075 4.26326C13.1805 4.10543 13.2368 3.91987 13.2368 3.73004C13.2369 3.60402 13.2121 3.47923 13.1639 3.36279C13.1157 3.24635 13.045 3.14055 12.9559 3.05143C12.8668 2.96231 12.761 2.89161 12.6445 2.84337C12.5281 2.79514 12.4033 2.77031 12.2772 2.77031C12.0874 2.77025 11.9017 2.82648 11.7438 2.9319C11.5859 3.03732 11.4629 3.18719 11.3902 3.36255C11.3174 3.53791 11.2984 3.73089 11.3354 3.91708C11.3724 4.10327 11.4638 4.2743 11.598 4.40855C11.7323 4.54281 11.9033 4.63424 12.0895 4.6713C12.2757 4.70835 12.4688 4.68937 12.6442 4.61674C12.8196 4.54411 12.9695 4.4211 13.075 4.26326Z" fill="#414141"/>
<path fill-rule="evenodd" clip-rule="evenodd" d="M15.9599 4.70437C15.9223 3.85455 15.7848 3.26995 15.5878 2.763C15.3818 2.23148 15.0671 1.74877 14.6639 1.3457C14.2607 0.942636 13.7778 0.628068 13.2462 0.422091C12.7366 0.225136 12.1553 0.0876743 11.3044 0.0500996C10.4479 0.0093935 10.1769 0 8.00313 0C5.82931 0 5.55841 0.00939369 4.70467 0.0469687C3.85092 0.0845434 3.26996 0.222005 2.76292 0.418646C2.23147 0.624698 1.74882 0.939268 1.34579 1.34227C0.942761 1.74528 0.628195 2.22787 0.422174 2.75925C0.22518 3.26901 0.0876917 3.85017 0.0501095 4.70061C0.0093956 5.55732 0 5.82786 0 8.00156C0 10.1753 0.00939541 10.4458 0.0466644 11.2991C0.0839335 12.1523 0.222048 12.7338 0.419041 13.2404C0.624632 13.7721 0.938963 14.2549 1.34192 14.6581C1.74488 15.0613 2.22759 15.376 2.75916 15.582C3.26903 15.7789 3.8503 15.9164 4.70091 15.954C5.55152 15.9915 5.8265 16.0009 7.99937 16.0009C10.1723 16.0009 10.4441 15.9915 11.2975 15.954C12.151 15.9164 12.7325 15.7789 13.2393 15.582C13.7712 15.3764 14.2543 15.0619 14.6576 14.6588C15.0608 14.2556 15.3753 13.7726 15.581 13.2408C15.778 12.7316 15.9154 12.1501 15.953 11.2994C15.9906 10.4486 16 10.1743 16 8.00188C16 5.82942 15.9975 5.55795 15.9599 4.70437ZM14.5193 11.2374C14.4848 12.0202 14.3536 12.4407 14.2443 12.7219C14.1109 13.0671 13.9069 13.3805 13.6452 13.6422C13.3835 13.9038 13.0699 14.1079 12.7247 14.2412C12.4428 14.3505 12.0182 14.4817 11.2399 14.5161C10.3943 14.5537 10.1438 14.5631 8.0072 14.5631C5.87065 14.5631 5.61541 14.5537 4.77451 14.5161C3.99154 14.4817 3.57062 14.3505 3.28938 14.2412C2.94202 14.1139 2.62791 13.9097 2.3705 13.6441C2.10534 13.3861 1.90109 13.0722 1.77263 12.7254C1.66301 12.4435 1.53179 12.0186 1.49734 11.2405C1.46007 10.3966 1.45067 10.1446 1.45067 8.00845C1.45067 5.87232 1.46007 5.61713 1.49734 4.77639C1.53179 3.99483 1.66301 3.57337 1.77263 3.29156C1.89987 2.94337 2.10525 2.62897 2.373 2.37254C2.63091 2.10767 2.94474 1.90377 3.29157 1.77572C3.57344 1.66644 3.99812 1.53525 4.7767 1.50049C5.62073 1.46323 5.87285 1.45383 8.00908 1.45383C10.1453 1.45383 10.4009 1.46323 11.2421 1.50049C12.0235 1.53525 12.4457 1.66644 12.7269 1.77572C13.0717 1.90818 13.3849 2.11155 13.6462 2.37267C13.9075 2.63378 14.111 2.94683 14.2437 3.29156C14.353 3.57337 14.4842 3.99765 14.5186 4.77608C14.5562 5.61995 14.5656 5.87201 14.5656 8.00814C14.5656 10.1443 14.5568 10.3932 14.5193 11.2374Z" fill="#414141"/>
</svg>
